<svg xmlns="http://www.w3.org/2000/svg" xmlns:xlink="http://www.w3.org/1999/xlink" width="625" zoomAndPan="magnify" viewBox="0 0 468.75 121.500001" height="162" preserveAspectRatio="xMidYMid meet" version="1.0"><defs><g/><clipPath id="f05a00224b"><path d="M 37 18.257812 L 81 18.257812 L 81 98.925781 L 37 98.925781 Z M 37 18.257812 " clip-rule="nonzero"/></clipPath><clipPath id="1b2ed10c12"><path d="M 27 25 L 78 25 L 78 98.925781 L 27 98.925781 Z M 27 25 " clip-rule="nonzero"/></clipPath><clipPath id="f4130b2ff9"><path d="M 16.636719 35 L 76 35 L 76 98.925781 L 16.636719 98.925781 Z M 16.636719 35 " clip-rule="nonzero"/></clipPath><clipPath id="829186d301"><path d="M 50 22 L 124.195312 22 L 124.195312 74 L 50 74 Z M 50 22 " clip-rule="nonzero"/></clipPath></defs><g clip-path="url(#f05a00224b)"><path fill="#60a5fa" d="M 80.015625 73.070312 L 80.015625 98.304688 C 68.789062 67.875 37.886719 67.070312 37.886719 67.070312 L 37.886719 18.257812 C 52.554688 20.101562 61.652344 25.757812 68.363281 31.535156 L 43.152344 44.84375 L 68.421875 48.746094 C 67.316406 53.8125 68.027344 59.0625 70.472656 63.6875 C 72.628906 67.789062 75.953125 71.03125 80.015625 73.070312 Z M 80.015625 73.070312 " fill-opacity="1" fill-rule="nonzero"/></g><g clip-path="url(#1b2ed10c12)"><path fill="#60a5fa" d="M 77.574219 98.136719 C 77.574219 98.136719 67.976562 74.222656 34.140625 70.808594 C 34.140625 52.097656 34.140625 25.417969 34.140625 25.417969 L 27.46875 25.417969 L 27.46875 74.546875 C 27.46875 74.546875 57.074219 73.410156 77.574219 98.136719 Z M 77.574219 98.136719 " fill-opacity="1" fill-rule="nonzero"/></g><g clip-path="url(#f4130b2ff9)"><path fill="#60a5fa" d="M 23.398438 35.667969 L 23.398438 80.894531 C 23.398438 80.894531 60.328125 77.640625 75.789062 99.113281 C 75.789062 99.113281 63.910156 85.449219 16.734375 84.636719 C 16.734375 71.457031 16.734375 35.671875 16.734375 35.671875 Z M 23.398438 35.667969 " fill-opacity="1" fill-rule="nonzero"/></g><g clip-path="url(#829186d301)"><path fill="#60a5fa" d="M 115.640625 32.324219 L 106.105469 37.363281 C 107.890625 38.949219 109.4375 40.859375 110.625 43.101562 C 115.925781 53.148438 112.070312 65.585938 102.039062 70.875 C 91.992188 76.175781 79.554688 72.332031 74.265625 62.292969 C 71.644531 57.332031 71.273438 51.804688 72.75 46.828125 L 50.277344 43.359375 L 89.820312 22.492188 L 124.21875 27.804688 L 117.0625 31.578125 Z M 115.640625 32.324219 " fill-opacity="1" fill-rule="nonzero"/></g><g fill="#00b0dc" fill-opacity="1"><g transform="translate(136.759068, 67.058633)"><g><path d="M 12.90625 -30.8125 C 10.382812 -30.8125 9.125 -29.804688 9.125 -27.796875 L 9.125 -11.703125 C 9.125 -8.734375 10.109375 -6.304688 12.078125 -4.421875 C 14.046875 -2.535156 16.566406 -1.59375 19.640625 -1.59375 C 22.828125 -1.59375 25.441406 -2.453125 27.484375 -4.171875 C 29.535156 -5.890625 30.5625 -8.269531 30.5625 -11.3125 L 30.5625 -25.625 C 30.5625 -27.039062 30.4375 -28.03125 30.1875 -28.59375 C 29.539062 -30.070312 28.082031 -30.8125 25.8125 -30.8125 C 25.695312 -30.8125 25.640625 -30.875 25.640625 -31 L 25.640625 -31.53125 C 25.640625 -31.65625 25.695312 -31.71875 25.8125 -31.71875 L 36.890625 -31.71875 C 37.003906 -31.71875 37.0625 -31.65625 37.0625 -31.53125 L 37.0625 -31 C 37.0625 -30.875 36.898438 -30.8125 36.578125 -30.8125 C 34.609375 -30.8125 33.40625 -30.046875 32.96875 -28.515625 C 32.894531 -28.265625 32.859375 -28.023438 32.859375 -27.796875 L 32.859375 -13.0625 C 32.859375 -6.476562 30.335938 -2.242188 25.296875 -0.359375 C 23.609375 0.285156 21.925781 0.609375 20.25 0.609375 C 14.226562 0.609375 9.796875 -0.960938 6.953125 -4.109375 C 5.484375 -5.734375 4.75 -7.738281 4.75 -10.125 L 4.75 -28.109375 C 4.75 -29.390625 3.972656 -30.234375 2.421875 -30.640625 C 1.972656 -30.753906 1.59375 -30.8125 1.28125 -30.8125 C 0.96875 -30.8125 0.8125 -30.875 0.8125 -31 L 0.8125 -31.53125 C 0.8125 -31.65625 0.863281 -31.71875 0.96875 -31.71875 L 13.15625 -31.71875 C 13.28125 -31.71875 13.34375 -31.65625 13.34375 -31.53125 L 13.34375 -31 C 13.34375 -30.875 13.195312 -30.8125 12.90625 -30.8125 Z M 12.90625 -30.8125 "/></g></g></g><g fill="#00b0dc" fill-opacity="1"><g transform="translate(176.668125, 67.058633)"><g><path d="M 1.53125 0 C 1.40625 0 1.34375 -0.0625 1.34375 -0.1875 L 1.34375 -0.71875 C 1.34375 -0.84375 1.421875 -0.90625 1.578125 -0.90625 L 2.09375 -0.90625 C 2.914062 -0.90625 3.476562 -0.976562 3.78125 -1.125 C 4.882812 -1.664062 5.4375 -3.148438 5.4375 -5.578125 L 5.4375 -28.953125 C 5.4375 -29.953125 4.460938 -30.550781 2.515625 -30.75 C 2.078125 -30.789062 1.769531 -30.8125 1.59375 -30.8125 C 1.425781 -30.8125 1.34375 -30.875 1.34375 -31 L 1.34375 -31.53125 C 1.34375 -31.65625 1.40625 -31.71875 1.53125 -31.71875 L 9.765625 -31.71875 L 31.109375 -8.125 C 31.179688 -8.039062 31.234375 -7.976562 31.265625 -7.9375 C 31.296875 -7.90625 31.34375 -7.890625 31.40625 -7.890625 C 31.476562 -7.890625 31.515625 -7.957031 31.515625 -8.09375 L 31.515625 -23.59375 C 31.515625 -26.570312 31.265625 -28.519531 30.765625 -29.4375 C 30.273438 -30.351562 29.28125 -30.8125 27.78125 -30.8125 L 26.625 -30.8125 C 26.507812 -30.8125 26.453125 -30.875 26.453125 -31 L 26.453125 -31.53125 C 26.453125 -31.65625 26.507812 -31.71875 26.625 -31.71875 L 38.328125 -31.71875 C 38.441406 -31.71875 38.5 -31.65625 38.5 -31.53125 L 38.5 -31 C 38.5 -30.875 38.273438 -30.8125 37.828125 -30.8125 C 37.390625 -30.8125 36.664062 -30.554688 35.65625 -30.046875 C 34.644531 -29.535156 34.140625 -28.90625 34.140625 -28.15625 L 34.140625 -0.65625 C 34.140625 -0.320312 34.09375 -0.0859375 34 0.046875 C 33.914062 0.191406 33.703125 0.265625 33.359375 0.265625 C 33.023438 0.265625 32.773438 0.195312 32.609375 0.0625 C 32.441406 -0.0703125 32.25 -0.265625 32.03125 -0.515625 L 8.84375 -26.21875 C 8.6875 -26.375 8.550781 -26.453125 8.4375 -26.453125 C 8.363281 -26.453125 8.328125 -26.375 8.328125 -26.21875 L 8.328125 -3.78125 C 8.328125 -2.414062 9.40625 -1.515625 11.5625 -1.078125 C 12.15625 -0.960938 12.609375 -0.90625 12.921875 -0.90625 C 13.242188 -0.90625 13.40625 -0.84375 13.40625 -0.71875 L 13.40625 -0.1875 C 13.40625 -0.0625 13.34375 0 13.21875 0 Z M 1.53125 0 "/></g></g></g><g fill="#00b0dc" fill-opacity="1"><g transform="translate(218.264051, 67.058633)"><g><path d="M 5.671875 -28.109375 C 5.671875 -29.910156 4.632812 -30.8125 2.5625 -30.8125 C 2.226562 -30.8125 2.0625 -30.875 2.0625 -31 L 2.0625 -31.53125 C 2.0625 -31.65625 2.125 -31.71875 2.25 -31.71875 L 13.515625 -31.71875 C 13.640625 -31.71875 13.703125 -31.65625 13.703125 -31.53125 L 13.703125 -31 C 13.703125 -30.875 13.367188 -30.8125 12.703125 -30.8125 C 12.046875 -30.8125 11.4375 -30.597656 10.875 -30.171875 C 10.320312 -29.753906 10.046875 -28.894531 10.046875 -27.59375 L 10.046875 -3.59375 C 10.046875 -1.800781 11.09375 -0.90625 13.1875 -0.90625 C 13.5 -0.90625 13.65625 -0.84375 13.65625 -0.71875 L 13.65625 -0.1875 C 13.65625 -0.0625 13.59375 0 13.46875 0 L 2.203125 0 C 2.085938 0 2.03125 -0.0625 2.03125 -0.1875 L 2.03125 -0.71875 C 2.03125 -0.84375 2.359375 -0.90625 3.015625 -0.90625 C 3.671875 -0.90625 4.273438 -1.113281 4.828125 -1.53125 C 5.390625 -1.945312 5.671875 -2.804688 5.671875 -4.109375 Z M 5.671875 -28.109375 "/></g></g></g><g fill="#00b0dc" fill-opacity="1"><g transform="translate(236.288802, 67.058633)"><g><path d="M 33.734375 -31 C 33.734375 -30.875 33.675781 -30.8125 33.5625 -30.8125 L 32.71875 -30.8125 C 30.820312 -30.4375 29.421875 -28.878906 28.515625 -26.140625 C 28.273438 -25.421875 28.03125 -24.722656 27.78125 -24.046875 L 18.9375 -0.1875 C 18.800781 0.1875 18.632812 0.410156 18.4375 0.484375 C 18.25 0.566406 17.984375 0.609375 17.640625 0.609375 L 16.578125 0.609375 C 16.210938 0.609375 15.976562 0.441406 15.875 0.109375 L 4.03125 -28.609375 C 3.550781 -29.796875 2.363281 -30.523438 0.46875 -30.796875 C 0.363281 -30.804688 0.273438 -30.8125 0.203125 -30.8125 C 0.140625 -30.8125 0.109375 -30.875 0.109375 -31 L 0.109375 -31.53125 C 0.109375 -31.65625 0.171875 -31.71875 0.296875 -31.71875 L 13.5625 -31.71875 C 13.6875 -31.71875 13.75 -31.65625 13.75 -31.53125 L 13.75 -31 C 13.75 -30.875 13.6875 -30.8125 13.5625 -30.8125 L 13.21875 -30.8125 C 12.84375 -30.75 12.410156 -30.691406 11.921875 -30.640625 C 10.003906 -30.398438 9.046875 -29.632812 9.046875 -28.34375 C 9.046875 -27.9375 9.148438 -27.5 9.359375 -27.03125 L 17.875 -6.296875 C 18.03125 -5.992188 18.191406 -6 18.359375 -6.3125 L 26.1875 -27.5 C 26.289062 -27.800781 26.34375 -28.15625 26.34375 -28.5625 C 26.34375 -28.976562 26.164062 -29.378906 25.8125 -29.765625 C 25.46875 -30.148438 25.117188 -30.367188 24.765625 -30.421875 C 24.421875 -30.484375 24.144531 -30.53125 23.9375 -30.5625 C 23.738281 -30.59375 23.4375 -30.640625 23.03125 -30.703125 C 22.625 -30.773438 22.351562 -30.8125 22.21875 -30.8125 C 22.082031 -30.8125 22.015625 -30.875 22.015625 -31 L 22.015625 -31.53125 C 22.015625 -31.65625 22.078125 -31.71875 22.203125 -31.71875 L 33.5625 -31.71875 C 33.675781 -31.71875 33.734375 -31.65625 33.734375 -31.53125 Z M 33.734375 -31 "/></g></g></g><g fill="#00b0dc" fill-opacity="1"><g transform="translate(272.441765, 67.058633)"><g><path d="M 0.15625 -0.1875 L 0.15625 -0.8125 C 0.15625 -0.925781 0.21875 -0.984375 0.34375 -0.984375 L 0.828125 -0.984375 C 1.460938 -1.035156 2.109375 -1.0625 2.765625 -1.0625 C 3.421875 -1.070312 4.019531 -1.148438 4.5625 -1.296875 C 5.789062 -1.660156 6.40625 -2.5625 6.40625 -4 L 6.40625 -27.703125 C 6.40625 -29.191406 5.53125 -30.140625 3.78125 -30.546875 C 3.28125 -30.648438 2.773438 -30.738281 2.265625 -30.8125 L 1.796875 -30.8125 C 1.679688 -30.8125 1.625 -30.875 1.625 -31 L 1.625 -31.53125 C 1.625 -31.65625 1.679688 -31.71875 1.796875 -31.71875 L 23.1875 -31.71875 C 23.457031 -31.71875 23.648438 -31.664062 23.765625 -31.5625 C 23.890625 -31.46875 23.96875 -31.253906 24 -30.921875 L 24.40625 -24.40625 C 24.40625 -24.25 24.289062 -24.171875 24.0625 -24.171875 C 23.84375 -24.171875 23.679688 -24.238281 23.578125 -24.375 C 23.484375 -24.53125 23.363281 -25.078125 23.21875 -26.015625 C 23.082031 -26.960938 22.828125 -27.75 22.453125 -28.375 C 22.078125 -29.007812 21.414062 -29.410156 20.46875 -29.578125 L 11.09375 -29.578125 C 10.894531 -29.578125 10.796875 -29.476562 10.796875 -29.28125 L 10.796875 -17.65625 C 10.796875 -17.507812 10.867188 -17.4375 11.015625 -17.4375 L 18.796875 -17.4375 C 20.804688 -17.4375 21.8125 -18.601562 21.8125 -20.9375 C 21.8125 -21.0625 21.875 -21.125 22 -21.125 L 22.53125 -21.125 C 22.65625 -21.125 22.71875 -21.0625 22.71875 -20.9375 L 22.71875 -11.3125 C 22.71875 -11.195312 22.65625 -11.140625 22.53125 -11.140625 L 22 -11.140625 C 21.875 -11.140625 21.8125 -11.195312 21.8125 -11.3125 C 21.8125 -13.53125 21.164062 -14.8125 19.875 -15.15625 C 19.519531 -15.25 19.140625 -15.296875 18.734375 -15.296875 L 11.015625 -15.296875 C 10.867188 -15.296875 10.796875 -15.21875 10.796875 -15.0625 L 10.796875 -4.109375 C 10.796875 -2.984375 11.3125 -2.347656 12.34375 -2.203125 C 12.644531 -2.160156 12.960938 -2.140625 13.296875 -2.140625 L 20.78125 -2.140625 C 22.320312 -2.140625 23.519531 -2.820312 24.375 -4.1875 C 24.988281 -5.15625 25.363281 -6.269531 25.5 -7.53125 C 25.550781 -7.957031 25.78125 -8.171875 26.1875 -8.171875 C 26.363281 -8.171875 26.453125 -8.070312 26.453125 -7.875 L 25.703125 -0.3125 C 25.617188 -0.101562 25.515625 0 25.390625 0 L 0.34375 0 C 0.21875 0 0.15625 -0.0625 0.15625 -0.1875 Z M 0.15625 -0.1875 "/></g></g></g><g fill="#00b0dc" fill-opacity="1"><g transform="translate(303.174258, 67.058633)"><g><path d="M 1.171875 0 C 1.046875 0 0.984375 -0.148438 0.984375 -0.453125 L 0.984375 -0.71875 C 0.984375 -0.84375 1.046875 -0.90625 1.171875 -0.90625 C 1.253906 -0.90625 1.394531 -0.914062 1.59375 -0.9375 C 1.789062 -0.96875 1.992188 -1 2.203125 -1.03125 C 2.410156 -1.0625 2.601562 -1.09375 2.78125 -1.125 C 2.96875 -1.164062 3.097656 -1.195312 3.171875 -1.21875 C 4.703125 -1.5625 5.46875 -2.429688 5.46875 -3.828125 L 5.46875 -27.578125 C 5.46875 -28.867188 4.945312 -29.78125 3.90625 -30.3125 C 3.289062 -30.644531 2.632812 -30.8125 1.9375 -30.8125 L 1.078125 -30.8125 C 0.960938 -30.8125 0.90625 -30.875 0.90625 -31 L 0.90625 -31.53125 C 0.90625 -31.65625 0.992188 -31.71875 1.171875 -31.71875 L 13.515625 -32.046875 L 15.78125 -32.046875 C 18.4375 -31.867188 20.660156 -30.90625 22.453125 -29.15625 C 24.242188 -27.414062 25.140625 -25.265625 25.140625 -22.703125 C 25.140625 -20.148438 24.078125 -18.160156 21.953125 -16.734375 C 21.296875 -16.296875 20.582031 -15.90625 19.8125 -15.5625 L 26.625 -4.4375 C 27.8125 -2.476562 29.398438 -1.101562 31.390625 -0.3125 C 31.554688 -0.269531 31.640625 -0.164062 31.640625 0 C 31.640625 0.375 31.394531 0.5625 30.90625 0.5625 C 27.53125 0.5625 24.84375 -0.71875 22.84375 -3.28125 C 22.414062 -3.851562 21.984375 -4.492188 21.546875 -5.203125 L 15.71875 -14.328125 L 10.375 -14.578125 L 10.1875 -14.578125 C 9.957031 -14.578125 9.84375 -14.472656 9.84375 -14.265625 L 9.84375 -3.890625 C 9.84375 -3.066406 10.078125 -2.453125 10.546875 -2.046875 C 11.015625 -1.640625 11.816406 -1.363281 12.953125 -1.21875 C 13.253906 -1.164062 13.617188 -1.097656 14.046875 -1.015625 C 14.484375 -0.941406 14.78125 -0.90625 14.9375 -0.90625 C 15.101562 -0.90625 15.1875 -0.84375 15.1875 -0.71875 L 15.1875 -0.1875 C 15.1875 -0.0625 15.125 0 15 0 Z M 11.671875 -30.859375 C 11.492188 -30.859375 11.300781 -30.851562 11.09375 -30.84375 C 10.894531 -30.832031 10.632812 -30.820312 10.3125 -30.8125 C 10 -30.8125 9.84375 -30.691406 9.84375 -30.453125 L 9.84375 -16.828125 L 9.890625 -16.15625 C 9.941406 -15.832031 10.085938 -15.664062 10.328125 -15.65625 L 12.625 -15.515625 C 16.832031 -15.515625 19.375 -17.015625 20.25 -20.015625 C 20.53125 -20.960938 20.671875 -22.039062 20.671875 -23.25 C 20.671875 -25.625 19.929688 -27.492188 18.453125 -28.859375 C 16.972656 -30.222656 15.085938 -30.90625 12.796875 -30.90625 C 12.585938 -30.90625 12.390625 -30.898438 12.203125 -30.890625 C 12.023438 -30.878906 11.847656 -30.867188 11.671875 -30.859375 Z M 11.671875 -30.859375 "/></g></g></g><g fill="#00b0dc" fill-opacity="1"><g transform="translate(337.392946, 67.058633)"><g><path d="M 18.984375 -31.4375 C 19.128906 -31.4375 19.203125 -31.273438 19.203125 -30.953125 L 19.796875 -26.15625 C 19.847656 -25.851562 19.875 -25.660156 19.875 -25.578125 C 19.875 -25.492188 19.757812 -25.453125 19.53125 -25.453125 C 19.300781 -25.453125 19.15625 -25.484375 19.09375 -25.546875 C 19.03125 -25.609375 18.96875 -25.707031 18.90625 -25.84375 C 18.851562 -25.988281 18.785156 -26.148438 18.703125 -26.328125 C 18.617188 -26.515625 18.53125 -26.695312 18.4375 -26.875 C 18.125 -27.5625 17.628906 -28.242188 16.953125 -28.921875 C 15.304688 -30.515625 13.445312 -31.3125 11.375 -31.3125 C 10.132812 -31.3125 8.957031 -30.90625 7.84375 -30.09375 C 6.738281 -29.28125 6.1875 -28.320312 6.1875 -27.21875 C 6.1875 -26.125 6.390625 -25.171875 6.796875 -24.359375 C 7.210938 -23.546875 7.757812 -22.796875 8.4375 -22.109375 C 9.113281 -21.421875 9.882812 -20.757812 10.75 -20.125 C 11.625 -19.5 12.507812 -18.863281 13.40625 -18.21875 C 15.789062 -16.550781 17.484375 -15.125 18.484375 -13.9375 C 20.054688 -12.113281 20.910156 -10.0625 21.046875 -7.78125 C 21.046875 -5.226562 20.066406 -3.191406 18.109375 -1.671875 C 16.160156 -0.148438 13.890625 0.609375 11.296875 0.609375 C 9.628906 0.609375 8.300781 0.4375 7.3125 0.09375 C 6.332031 -0.238281 5.65625 -0.476562 5.28125 -0.625 C 4.90625 -0.78125 4.628906 -0.859375 4.453125 -0.859375 C 4.285156 -0.859375 4.179688 -0.847656 4.140625 -0.828125 L 3.03125 -0.609375 C 2.84375 -0.609375 2.722656 -0.765625 2.671875 -1.078125 C 2.242188 -4.796875 2.03125 -6.769531 2.03125 -7 C 2.03125 -7.238281 2.046875 -7.398438 2.078125 -7.484375 C 2.117188 -7.566406 2.222656 -7.609375 2.390625 -7.609375 C 2.804688 -7.609375 3.1875 -7.003906 3.53125 -5.796875 C 5.101562 -2.429688 7.71875 -0.75 11.375 -0.75 C 13.0625 -0.75 14.5 -1.253906 15.6875 -2.265625 C 16.875 -3.285156 17.46875 -4.613281 17.46875 -6.25 C 17.46875 -8.863281 15.910156 -11.296875 12.796875 -13.546875 C 11.910156 -14.171875 10.632812 -15.046875 8.96875 -16.171875 C 7.3125 -17.296875 5.988281 -18.421875 5 -19.546875 C 3.445312 -21.285156 2.671875 -23.222656 2.671875 -25.359375 C 2.671875 -27.492188 3.519531 -29.242188 5.21875 -30.609375 C 6.925781 -31.972656 8.882812 -32.65625 11.09375 -32.65625 C 12.226562 -32.65625 13.476562 -32.457031 14.84375 -32.0625 C 16.21875 -31.675781 17.175781 -31.414062 17.71875 -31.28125 Z M 18.984375 -31.4375 "/></g></g></g><g fill="#00b0dc" fill-opacity="1"><g transform="translate(362.772444, 67.058633)"><g><path d="M 11.96875 -0.1875 C 11.96875 -0.0625 11.90625 0 11.78125 0 L 0.296875 0 C 0.171875 0 0.109375 -0.0625 0.109375 -0.1875 L 0.109375 -0.71875 C 0.109375 -0.84375 0.207031 -0.90625 0.40625 -0.90625 C 2.457031 -0.988281 3.84375 -2.082031 4.5625 -4.1875 L 13.75 -30.75 C 13.757812 -30.78125 13.765625 -30.816406 13.765625 -30.859375 L 13.515625 -31.59375 C 13.515625 -31.675781 13.546875 -31.71875 13.609375 -31.71875 L 18.109375 -31.71875 C 18.140625 -31.695312 18.179688 -31.675781 18.234375 -31.65625 C 18.285156 -31.644531 18.328125 -31.601562 18.359375 -31.53125 L 27.859375 -4.828125 C 28.078125 -4.429688 28.25 -4.066406 28.375 -3.734375 C 28.5 -3.398438 28.644531 -3.097656 28.8125 -2.828125 C 29.164062 -2.210938 29.757812 -1.742188 30.59375 -1.421875 C 31.28125 -1.078125 31.910156 -0.90625 32.484375 -0.90625 C 32.597656 -0.90625 32.65625 -0.835938 32.65625 -0.703125 L 32.65625 -0.1875 C 32.65625 -0.0625 32.597656 0 32.484375 0 L 18.71875 0 C 18.59375 0 18.53125 -0.0625 18.53125 -0.1875 L 18.53125 -0.71875 C 18.53125 -0.84375 18.804688 -0.914062 19.359375 -0.9375 C 19.921875 -0.96875 20.378906 -1 20.734375 -1.03125 C 22.816406 -1.257812 23.859375 -1.96875 23.859375 -3.15625 C 23.859375 -3.238281 23.84375 -3.34375 23.8125 -3.46875 L 20.421875 -13.046875 C 20.410156 -13.078125 20.378906 -13.144531 20.328125 -13.25 C 20.148438 -13.757812 19.835938 -14.015625 19.390625 -14.015625 L 11.40625 -14.015625 C 10.957031 -14.015625 10.601562 -13.765625 10.34375 -13.265625 C 10.300781 -13.160156 10.28125 -13.101562 10.28125 -13.09375 L 6.90625 -3.21875 L 6.90625 -3.015625 C 6.90625 -2.617188 7.109375 -2.265625 7.515625 -1.953125 C 8.429688 -1.253906 9.660156 -0.90625 11.203125 -0.90625 L 11.78125 -0.90625 C 11.90625 -0.90625 11.96875 -0.84375 11.96875 -0.71875 Z M 18.625 -16.515625 C 18.894531 -16.515625 19.03125 -16.625 19.03125 -16.84375 C 19.03125 -16.96875 19 -17.101562 18.9375 -17.25 L 15.59375 -26.46875 C 15.4375 -26.875 15.320312 -27.078125 15.25 -27.078125 C 15.175781 -27.078125 15.054688 -26.867188 14.890625 -26.453125 L 11.734375 -17.25 C 11.679688 -17.101562 11.65625 -16.941406 11.65625 -16.765625 C 11.65625 -16.597656 11.765625 -16.515625 11.984375 -16.515625 Z M 18.625 -16.515625 "/></g></g></g><g fill="#00b0dc" fill-opacity="1"><g transform="translate(397.845812, 67.058633)"><g><path d="M 1.078125 0 C 0.960938 0 0.90625 -0.0625 0.90625 -0.1875 L 0.90625 -0.71875 C 0.90625 -0.84375 0.960938 -0.90625 1.078125 -0.90625 L 1.625 -0.90625 C 2.90625 -0.90625 4.03125 -1.171875 5 -1.703125 C 5.382812 -1.929688 5.703125 -2.28125 5.953125 -2.75 C 6.210938 -3.226562 6.34375 -3.757812 6.34375 -4.34375 L 6.34375 -28.140625 C 6.34375 -29.066406 5.742188 -29.78125 4.546875 -30.28125 C 3.703125 -30.632812 2.804688 -30.8125 1.859375 -30.8125 L 1.375 -30.8125 C 1.25 -30.8125 1.1875 -30.875 1.1875 -31 L 1.1875 -31.53125 C 1.1875 -31.65625 1.25 -31.71875 1.375 -31.71875 L 16.59375 -31.71875 C 16.71875 -31.71875 16.78125 -31.65625 16.78125 -31.53125 L 16.78125 -31 C 16.78125 -30.875 16.71875 -30.8125 16.59375 -30.8125 L 15.625 -30.8125 C 14.082031 -30.8125 12.71875 -30.59375 11.53125 -30.15625 C 11.1875 -30.039062 10.96875 -29.84375 10.875 -29.5625 C 10.78125 -29.289062 10.734375 -28.816406 10.734375 -28.140625 L 10.734375 -3.1875 C 10.753906 -2.9375 10.882812 -2.695312 11.125 -2.46875 C 11.375 -2.25 11.644531 -2.140625 11.9375 -2.140625 L 20.828125 -2.140625 C 22.160156 -2.140625 23.472656 -2.925781 24.765625 -4.5 C 25.109375 -4.914062 25.535156 -5.472656 26.046875 -6.171875 C 26.554688 -6.867188 26.867188 -7.265625 26.984375 -7.359375 C 27.460938 -7.710938 27.703125 -7.703125 27.703125 -7.328125 C 27.703125 -7.242188 27.679688 -7.15625 27.640625 -7.0625 L 24.25 -0.40625 C 24.113281 -0.132812 23.957031 0 23.78125 0 Z M 1.078125 0 "/></g></g></g><g fill="#00b0dc" fill-opacity="1"><g transform="translate(428.01602, 67.058633)"><g/></g></g><g fill="#000000" fill-opacity="1"><g transform="translate(95.114578, 98.318414)"><g><path d="M 18.40625 0 L 16 0 L 15.96875 -11.578125 L 11.078125 -1.609375 L 9.375 -1.609375 L 4.484375 -11.578125 L 4.484375 0 L 2.03125 0 L 2.03125 -15.484375 L 5.140625 -15.484375 L 10.25 -5.203125 L 15.328125 -15.484375 L 18.40625 -15.484375 Z M 18.40625 0 "/></g></g></g><g fill="#000000" fill-opacity="1"><g transform="translate(123.318573, 98.318414)"><g><path d="M 12.03125 -3.5 L 4.21875 -3.5 L 2.75 0 L 0.015625 0 L 6.859375 -15.484375 L 9.53125 -15.484375 L 16.3125 0 L 13.515625 0 Z M 11.046875 -5.8125 L 8.125 -12.703125 L 5.203125 -5.8125 Z M 11.046875 -5.8125 "/></g></g></g><g fill="#000000" fill-opacity="1"><g transform="translate(147.385973, 98.318414)"><g><path d="M 11.859375 0 L 9.03125 -4.6875 C 8.882812 -4.675781 8.644531 -4.671875 8.3125 -4.671875 L 4.640625 -4.671875 L 4.640625 0 L 2.03125 0 L 2.03125 -15.484375 L 8.3125 -15.484375 C 10.289062 -15.484375 11.828125 -15.019531 12.921875 -14.09375 C 14.015625 -13.175781 14.5625 -11.878906 14.5625 -10.203125 C 14.5625 -8.960938 14.285156 -7.914062 13.734375 -7.0625 C 13.179688 -6.207031 12.382812 -5.578125 11.34375 -5.171875 L 14.828125 0 Z M 4.640625 -7.015625 L 8.3125 -7.015625 C 10.820312 -7.015625 12.078125 -8.054688 12.078125 -10.140625 C 12.078125 -12.140625 10.820312 -13.140625 8.3125 -13.140625 L 4.640625 -13.140625 Z M 4.640625 -7.015625 "/></g></g></g><g fill="#000000" fill-opacity="1"><g transform="translate(171.121575, 98.318414)"><g><path d="M 12.375 0 L 7.28125 -6.84375 L 4.640625 -3.9375 L 4.640625 0 L 2.03125 0 L 2.03125 -15.484375 L 4.640625 -15.484375 L 4.640625 -7.484375 L 12.03125 -15.484375 L 15.109375 -15.484375 L 9.109375 -8.875 L 15.515625 0 Z M 12.375 0 "/></g></g></g><g fill="#000000" fill-opacity="1"><g transform="translate(194.746565, 98.318414)"><g><path d="M 13.09375 -13.140625 L 4.640625 -13.140625 L 4.640625 -8.953125 L 12.21875 -8.953125 L 12.21875 -6.609375 L 4.640625 -6.609375 L 4.640625 -2.34375 L 13.359375 -2.34375 L 13.359375 0 L 2.03125 0 L 2.03125 -15.484375 L 13.09375 -15.484375 Z M 13.09375 -13.140625 "/></g></g></g><g fill="#000000" fill-opacity="1"><g transform="translate(217.000078, 98.318414)"><g><path d="M 12.609375 -13.140625 L 7.703125 -13.140625 L 7.703125 0 L 5.09375 0 L 5.09375 -13.140625 L 0.203125 -13.140625 L 0.203125 -15.484375 L 12.609375 -15.484375 Z M 12.609375 -13.140625 "/></g></g></g><g fill="#000000" fill-opacity="1"><g transform="translate(237.550281, 98.318414)"><g/></g></g><g fill="#000000" fill-opacity="1"><g transform="translate(250.99971, 98.318414)"><g><path d="M 11.859375 0 L 9.03125 -4.6875 C 8.882812 -4.675781 8.644531 -4.671875 8.3125 -4.671875 L 4.640625 -4.671875 L 4.640625 0 L 2.03125 0 L 2.03125 -15.484375 L 8.3125 -15.484375 C 10.289062 -15.484375 11.828125 -15.019531 12.921875 -14.09375 C 14.015625 -13.175781 14.5625 -11.878906 14.5625 -10.203125 C 14.5625 -8.960938 14.285156 -7.914062 13.734375 -7.0625 C 13.179688 -6.207031 12.382812 -5.578125 11.34375 -5.171875 L 14.828125 0 Z M 4.640625 -7.015625 L 8.3125 -7.015625 C 10.820312 -7.015625 12.078125 -8.054688 12.078125 -10.140625 C 12.078125 -12.140625 10.820312 -13.140625 8.3125 -13.140625 L 4.640625 -13.140625 Z M 4.640625 -7.015625 "/></g></g></g><g fill="#000000" fill-opacity="1"><g transform="translate(274.735312, 98.318414)"><g><path d="M 13.09375 -13.140625 L 4.640625 -13.140625 L 4.640625 -8.953125 L 12.21875 -8.953125 L 12.21875 -6.609375 L 4.640625 -6.609375 L 4.640625 -2.34375 L 13.359375 -2.34375 L 13.359375 0 L 2.03125 0 L 2.03125 -15.484375 L 13.09375 -15.484375 Z M 13.09375 -13.140625 "/></g></g></g><g fill="#000000" fill-opacity="1"><g transform="translate(296.988824, 98.318414)"><g><path d="M 7.125 -15.59375 C 9.132812 -15.59375 10.941406 -15.0625 12.546875 -14 L 11.453125 -11.703125 C 9.878906 -12.660156 8.367188 -13.140625 6.921875 -13.140625 C 6.140625 -13.140625 5.523438 -13 5.078125 -12.71875 C 4.628906 -12.4375 4.40625 -12.035156 4.40625 -11.515625 C 4.40625 -11.003906 4.609375 -10.566406 5.015625 -10.203125 C 5.429688 -9.847656 5.945312 -9.582031 6.5625 -9.40625 C 7.1875 -9.238281 7.859375 -9.023438 8.578125 -8.765625 C 9.304688 -8.515625 9.976562 -8.242188 10.59375 -7.953125 C 11.21875 -7.660156 11.734375 -7.207031 12.140625 -6.59375 C 12.546875 -5.988281 12.75 -5.25 12.75 -4.375 C 12.75 -3.019531 12.203125 -1.9375 11.109375 -1.125 C 10.023438 -0.3125 8.625 0.09375 6.90625 0.09375 C 5.726562 0.09375 4.582031 -0.125 3.46875 -0.5625 C 2.363281 -1.007812 1.398438 -1.613281 0.578125 -2.375 L 1.703125 -4.625 C 2.484375 -3.90625 3.34375 -3.347656 4.28125 -2.953125 C 5.21875 -2.566406 6.109375 -2.375 6.953125 -2.375 C 7.859375 -2.375 8.566406 -2.535156 9.078125 -2.859375 C 9.585938 -3.191406 9.84375 -3.65625 9.84375 -4.25 C 9.84375 -4.78125 9.632812 -5.222656 9.21875 -5.578125 C 8.8125 -5.941406 8.296875 -6.207031 7.671875 -6.375 C 7.054688 -6.550781 6.382812 -6.757812 5.65625 -7 C 4.9375 -7.25 4.265625 -7.507812 3.640625 -7.78125 C 3.023438 -8.050781 2.507812 -8.488281 2.09375 -9.09375 C 1.6875 -9.695312 1.484375 -10.425781 1.484375 -11.28125 C 1.484375 -12.59375 2 -13.640625 3.03125 -14.421875 C 4.0625 -15.203125 5.425781 -15.59375 7.125 -15.59375 Z M 7.125 -15.59375 "/></g></g></g><g fill="#000000" fill-opacity="1"><g transform="translate(318.490221, 98.318414)"><g><path d="M 13.09375 -13.140625 L 4.640625 -13.140625 L 4.640625 -8.953125 L 12.21875 -8.953125 L 12.21875 -6.609375 L 4.640625 -6.609375 L 4.640625 -2.34375 L 13.359375 -2.34375 L 13.359375 0 L 2.03125 0 L 2.03125 -15.484375 L 13.09375 -15.484375 Z M 13.09375 -13.140625 "/></g></g></g><g fill="#000000" fill-opacity="1"><g transform="translate(340.743734, 98.318414)"><g><path d="M 12.03125 -3.5 L 4.21875 -3.5 L 2.75 0 L 0.015625 0 L 6.859375 -15.484375 L 9.53125 -15.484375 L 16.3125 0 L 13.515625 0 Z M 11.046875 -5.8125 L 8.125 -12.703125 L 5.203125 -5.8125 Z M 11.046875 -5.8125 "/></g></g></g><g fill="#000000" fill-opacity="1"><g transform="translate(364.811134, 98.318414)"><g><path d="M 11.859375 0 L 9.03125 -4.6875 C 8.882812 -4.675781 8.644531 -4.671875 8.3125 -4.671875 L 4.640625 -4.671875 L 4.640625 0 L 2.03125 0 L 2.03125 -15.484375 L 8.3125 -15.484375 C 10.289062 -15.484375 11.828125 -15.019531 12.921875 -14.09375 C 14.015625 -13.175781 14.5625 -11.878906 14.5625 -10.203125 C 14.5625 -8.960938 14.285156 -7.914062 13.734375 -7.0625 C 13.179688 -6.207031 12.382812 -5.578125 11.34375 -5.171875 L 14.828125 0 Z M 4.640625 -7.015625 L 8.3125 -7.015625 C 10.820312 -7.015625 12.078125 -8.054688 12.078125 -10.140625 C 12.078125 -12.140625 10.820312 -13.140625 8.3125 -13.140625 L 4.640625 -13.140625 Z M 4.640625 -7.015625 "/></g></g></g><g fill="#000000" fill-opacity="1"><g transform="translate(388.546753, 98.318414)"><g><path d="M 8.890625 -15.546875 C 9.984375 -15.546875 11.050781 -15.335938 12.09375 -14.921875 C 13.132812 -14.503906 14.03125 -13.921875 14.78125 -13.171875 L 13.25 -11.265625 C 12.6875 -11.867188 12.019531 -12.347656 11.25 -12.703125 C 10.488281 -13.054688 9.71875 -13.234375 8.9375 -13.234375 C 7.382812 -13.234375 6.070312 -12.703125 5 -11.640625 C 3.9375 -10.585938 3.40625 -9.300781 3.40625 -7.78125 C 3.40625 -6.25 3.9375 -4.957031 5 -3.90625 C 6.070312 -2.851562 7.382812 -2.328125 8.9375 -2.328125 C 10.539062 -2.328125 11.976562 -2.9375 13.25 -4.15625 L 14.796875 -2.4375 C 14.003906 -1.65625 13.078125 -1.035156 12.015625 -0.578125 C 10.953125 -0.117188 9.882812 0.109375 8.8125 0.109375 C 6.539062 0.109375 4.628906 -0.644531 3.078125 -2.15625 C 1.523438 -3.664062 0.75 -5.535156 0.75 -7.765625 C 0.75 -9.960938 1.535156 -11.804688 3.109375 -13.296875 C 4.679688 -14.796875 6.609375 -15.546875 8.890625 -15.546875 Z M 8.890625 -15.546875 "/></g></g></g><g fill="#000000" fill-opacity="1"><g transform="translate(411.707226, 98.318414)"><g><path d="M 15.46875 0 L 12.859375 0 L 12.859375 -6.421875 L 4.640625 -6.421875 L 4.640625 0 L 2.03125 0 L 2.03125 -15.484375 L 4.640625 -15.484375 L 4.640625 -8.765625 L 12.859375 -8.765625 L 12.859375 -15.484375 L 15.46875 -15.484375 Z M 15.46875 0 "/></g></g></g><g fill="#000000" fill-opacity="1"><g transform="translate(436.949964, 98.318414)"><g/></g></g></svg>